Patient4_TMGait_0pt7_01_right_11_EMG.mot
version=1
nRows=20
nColumns=33
inDegrees=no
endheader
time	1LAddLong	2LGlutMax	3LGlutMed	4LIliopsoas	5LSemiMemb	6LBicFemLong	7LRecFem	8LVastMed	9LVastLat	10LGasMed	11LTibAnt	12lTibPost	13LPeroneusLong	14LSol	15LExtDigLong	16LFlexDigLong	17RAddLong	18RGlutMax	19RGlutMed	20RIliopsoas	21RSemiMemb	22RBicFemLong	23RRecFem	24RVastMed	25RVastLat	26RGasMed	27RTibAnt	28RTibPost	29RPeroneusLong	30RSol	31RExtDigLong	32RFlexDigLong
13.29	0.014496	-0.049286	0.016479	0.009003	-0.02594	0.057678	0.20325	0.012665	0.039673	0.13001	0.001526	-0.004578	-0.11154	0.022278	-0.18707	-0.022583	-0.024261	-0.038452	-0.26657	0.049896	0.003204	0.006714	-0.039673	-0.091553	0.009308	-0.008545	0.011444	-0.000305	0.059357	0.077515	-0.006409	-0.001221
13.291	0.020905	-0.013123	0.009613	-0.009308	0.083466	0.018921	0.17456	0.010223	0.012054	0.20218	0.001373	-0.000916	0.12634	-0.068512	-0.15686	0.052948	-0.017395	0.062561	-0.27634	0.02182	-0.023499	-0.019226	0.006866	-0.091553	0.007782	-0.002899	-0.015564	-0.002136	0.35568	0.04303	0.001221	0.005646
13.292	0.019989	-0.00351	0.018616	0.010681	0.036163	-0.067291	0.18509	0.013428	-0.084076	0.21271	0.039825	0.004425	0.29846	-0.088196	-0.12863	-0.019531	-0.012512	0.046692	-0.32974	-0.039673	-0.022736	-0.010529	-0.034027	-0.11307	-0.00412	-0.00946	0.053406	-0.002594	0.15121	-0.022736	-0.003052	0.004578
13.293	0.007172	-0.023041	-0.047302	0.019531	0.00946	-0.010986	0.23407	0.004578	-0.19287	0.19073	0.076752	0.011597	0.26672	-0.17349	-0.16754	-0.071869	-0.007935	0.057373	0.076294	-0.15488	-0.036316	-0.03006	-0.04837	-0.093231	0.021667	-0.010681	0.082092	-0.001526	-0.058289	-0.067444	-0.003662	0.007782
13.294	0.011139	0.014343	-0.063477	0.029297	-0.02655	0.00946	0.19974	0.011902	-0.15839	0.15839	0.025635	0.014191	0.27481	-0.19623	-0.1947	0.20111	-0.018311	0.065613	-0.55527	-0.078583	-0.050964	-0.031433	-0.047913	-0.070496	0.028229	-0.010223	0.065918	0.001373	0.14099	-0.036621	-0.001068	0.0177
13.295	0.023193	-0.00824	-0.11704	0.004578	-0.069427	-0.001526	0.19073	0.006866	-0.015564	0.13336	-0.010376	0.011292	-0.10864	-0.24704	-0.18616	0.097351	-0.007935	-0.02533	-0.69473	0.04364	-0.023956	-0.052032	-0.065613	-0.072479	0.025635	-0.013275	0.013885	0.000153	0.19821	-0.049744	-0.001526	0.011444
13.296	0.020599	-0.000305	-0.05127	-0.003815	-0.062408	-0.076141	0.17792	-0.000153	0.14694	-0.013885	-0.004425	0.007935	-0.10269	-0.32638	-0.16876	-0.1178	-0.006104	-0.041809	-1.3139	0.16327	-0.002747	-0.064087	-0.024567	-0.076599	0.022278	-0.014496	-0.016479	-0.001984	0.083466	-0.047607	-0.002899	0.01236
13.297	0.03006	0.02121	-0.046844	-0.001373	-0.006256	-0.092316	0.17319	-0.00412	0.11124	-0.15533	-0.015717	0.00885	-0.33356	-0.29098	-0.14084	-0.088959	-0.002594	0.010223	-1.2019	0.08667	0.01236	0.024719	-0.044098	-0.070953	0.022888	-0.020599	-0.003052	0	0.071716	-0.028534	-0.001526	0.011139
13.298	0.02121	0.018311	-0.040894	-0.002899	0.13458	-0.085602	0.21225	-0.004425	0.054779	-0.22079	-0.00473	0.005798	-0.047913	-0.12177	-0.12421	-0.036011	0.015411	0.059509	-0.22476	-0.038757	-0.024719	0.17838	-0.030518	-0.077362	0.032349	-0.022888	0.020752	-0.000305	-0.055542	-0.020752	-0.001373	0.018921
13.299	0.014038	-0.001678	-0.036316	0.018921	0.14954	-0.036926	0.21545	-0.001678	0.028381	-0.16373	0.013733	0.00473	0.001984	0.011902	-0.15213	-0.015869	0.020752	0.011749	0.45609	-0.027161	-0.068817	0.063782	-0.031433	-0.10773	0.020447	-0.019531	0.024261	-0.002747	0.094757	-0.023804	-0.002899	0.014343
13.3	0.015259	0.001526	-0.0383	-0.024261	0.059052	0.059967	0.23346	0.003357	0.004883	-0.12909	0.030518	0.01297	-0.10483	0.15213	-0.11765	-0.019073	0.00473	-0.00351	0.59708	-0.028076	-0.041809	-0.048523	-0.0177	-0.083466	0.009308	-0.011597	0.073395	0.009308	0.57587	-0.037079	-0.001831	0.019836
13.301	0.01297	-0.018768	-0.055695	-0.018311	0.009918	0.064087	0.23636	0.00885	-0.012817	-0.17181	0.012512	0.007629	-0.062866	0.2681	-0.062561	-0.71838	0.019836	-0.081024	0.77713	0.025177	0.019684	-0.030212	-0.014496	-0.10452	0.005798	-0.007935	0.06073	-0.005798	0.31113	-0.032959	-0.007629	0.018005
13.302	0.005951	0.014343	-0.043335	-0.027771	-0.000916	0.039673	0.24277	0.009918	-0.13275	-0.002899	0.002136	-0.000916	-0.06134	0.31158	-0.033722	0.26413	0.015259	-0.14023	0.71899	0.066833	0.048981	-0.043945	-0.020905	-0.10147	0.002289	-0.010986	0.08728	-0.000153	0.054169	-0.016327	-0.002594	0.010071
13.303	-0.00061	0.030365	-0.099792	0.001221	0.058441	0.018311	0.23468	0.012512	-0.1001	0.23666	0	-0.001526	-0.070038	0.21149	-0.039978	0.98816	-0.021362	-0.12421	0.084991	0.1033	-0.1683	0.028992	-0.044708	-0.085602	0.003967	-0.01358	0.09201	-0.001984	-0.24811	0.033264	-0.002441	0.01709
13.304	0.007477	0.072784	0.024109	0.014496	0.029297	0.000153	0.2124	0.010376	-0.064392	0.1973	0.005646	-0.000305	-0.024261	0.010834	-0.056152	-0.64407	-0.032959	-0.14938	-0.065765	-0.00061	-0.13748	0.11368	-0.04303	-0.034485	0.006256	-0.011597	0.072021	-0.000153	-0.94284	-0.032196	0	0.016479
13.305	0.006866	0.10284	-0.015106	0.02243	-0.020905	-0.022736	0.15747	0.009766	-0.067139	0.27603	0.018616	0.001678	0.072174	-0.25879	-0.059204	0.23956	-0.031433	-0.1062	0.19196	0.011597	0.057373	0.004578	-0.031433	-0.088806	0.043335	-0.003662	0.066223	0.001373	-1.2625	-0.16312	-0.003052	0.016785
13.306	0.014954	0.10452	-0.11612	0.030518	0.032196	-0.036469	0.17334	0.011749	-0.04364	0.57632	0.006866	0.009308	0.30106	-0.15106	-0.040436	0.17441	-0.005798	-0.045776	-0.46326	0.062408	-0.052338	-0.041656	-0.014343	-0.066833	0.013123	-0.009613	0.067139	-0.005341	-0.81863	-0.096893	-0.004578	0.017853
13.307	0.020599	0.14938	-0.033875	0.002289	0.086212	-0.032654	0.21515	0.00061	0.052185	0.60288	0.00946	0.006866	0.23178	0.12161	-0.019379	-0.31982	0.034485	-0.030365	-0.14557	0.062103	-0.08606	0.009155	0.010376	-0.062714	0.018616	-0.00824	0.0737	-0.000153	-0.055084	-0.053406	-0.007782	0.021057
13.308	0.013123	0.16556	-0.001984	-0.00824	0.056	0.009613	0.19333	0.002594	0.028381	0.16754	0.02182	0.016327	0.20462	0.050964	-0.018005	0.13046	0.034027	-0.034943	0.34454	0.072021	-0.081635	0.12039	-0.056	-0.084991	0.03479	-0.020905	0.072937	-0.000458	0.40436	-0.049438	-0.007782	0.016174
13.309	0.000458	0.21988	-0.005798	-0.004883	0.021515	0.035248	0.21652	0.007172	0.007324	0.013123	0.019531	0.012512	0.19791	-0.11658	-0.03891	0.11704	0.012665	-0.079651	-0.19714	0.048828	0.10696	0.13992	-0.067902	-0.013275	0.03479	-0.038147	0.049133	-0.001068	0.36652	-0.054932	0.005035	0.010681
